<svg width="16" height="16" viewBox="0 0 16 16" fill="none" xmlns="http://www.w3.org/2000/svg">
<g clip-path="url(#clip0_2299_186)">
<path d="M11.3333 3.99998H10V1.99998C10 1.63331 9.70001 1.33331 9.33334 1.33331H6.66668C6.30001 1.33331 6.00001 1.63331 6.00001 1.99998V3.99998H4.66668C3.93334 3.99998 3.33334 4.59998 3.33334 5.33331V12.6666C3.33334 13.4 3.93334 14 4.66668 14C4.66668 14.3666 4.96668 14.6666 5.33334 14.6666C5.70001 14.6666 6.00001 14.3666 6.00001 14H10C10 14.3666 10.3 14.6666 10.6667 14.6666C11.0333 14.6666 11.3333 14.3666 11.3333 14C12.0667 14 12.6667 13.4 12.6667 12.6666V5.33331C12.6667 4.59998 12.0667 3.99998 11.3333 3.99998ZM6.33334 12H5.33334V5.99998H6.33334V12ZM8.50001 12H7.50001V5.99998H8.50001V12ZM9.00001 3.99998H7.00001V2.33331H9.00001V3.99998ZM10.6667 12H9.66668V5.99998H10.6667V12Z" fill="black"/>
</g>
<defs>
<clipPath id="clip0_2299_186">
<rect width="16" height="16" fill="white"/>
</clipPath>
</defs>
</svg>
