<svg width="128" height="52" viewBox="0 0 128 52" fill="none" xmlns="http://www.w3.org/2000/svg">
<path d="M25.7148 34.875C24.0742 35.8203 22.0352 36.293 19.5977 36.293C16.8945 36.293 14.7617 35.5469 13.1992 34.0547C11.6445 32.5547 10.8672 30.4922 10.8672 27.8672C10.8672 25.2266 11.7188 23.0742 13.4219 21.4102C15.125 19.7461 17.3906 18.9141 20.2188 18.9141C22 18.9141 23.5703 19.1602 24.9297 19.6523V23.2031C23.6328 22.4531 22.0469 22.0781 20.1719 22.0781C18.6016 22.0781 17.3203 22.5898 16.3281 23.6133C15.3438 24.6289 14.8516 25.9883 14.8516 27.6914C14.8516 29.418 15.293 30.7539 16.1758 31.6992C17.0664 32.6445 18.2656 33.1172 19.7734 33.1172C20.6797 33.1172 21.3984 32.9883 21.9297 32.7305V29.4492H18.5664V26.4258H25.7148V34.875ZM32.3242 36H28.6211V18.2344H32.3242V36ZM41.1602 36.293C39.1602 36.293 37.5859 35.7344 36.4375 34.6172C35.2969 33.4922 34.7266 31.9688 34.7266 30.0469C34.7266 28.0625 35.3203 26.5117 36.5078 25.3945C37.6953 24.2695 39.3008 23.707 41.3242 23.707C43.3164 23.707 44.8789 24.2695 46.0117 25.3945C47.1445 26.5117 47.7109 27.9922 47.7109 29.8359C47.7109 31.8281 47.125 33.4023 45.9531 34.5586C44.7891 35.7148 43.1914 36.293 41.1602 36.293ZM41.2539 26.543C40.3789 26.543 39.6992 26.8438 39.2148 27.4453C38.7305 28.0469 38.4883 28.8984 38.4883 30C38.4883 32.3047 39.418 33.457 41.2773 33.457C43.0508 33.457 43.9375 32.2734 43.9375 29.9062C43.9375 27.6641 43.043 26.543 41.2539 26.543ZM53.8633 34.6055H53.8164V36H50.1133V18.2344H53.8164V25.8047H53.8633C54.7773 24.4062 56.0781 23.707 57.7656 23.707C59.3125 23.707 60.5039 24.2383 61.3398 25.3008C62.1758 26.3633 62.5938 27.8164 62.5938 29.6602C62.5938 31.6602 62.1055 33.2656 61.1289 34.4766C60.1523 35.6875 58.8477 36.293 57.2148 36.293C55.7383 36.293 54.6211 35.7305 53.8633 34.6055ZM53.7578 29.543V30.7734C53.7578 31.5469 53.9805 32.1875 54.4258 32.6953C54.8711 33.2031 55.4414 33.457 56.1367 33.457C56.9805 33.457 57.6328 33.1328 58.0938 32.4844C58.5625 31.8281 58.7969 30.9023 58.7969 29.707C58.7969 28.7148 58.582 27.9414 58.1523 27.3867C57.7305 26.8242 57.125 26.543 56.3359 26.543C55.5938 26.543 54.9766 26.8203 54.4844 27.375C54 27.9297 53.7578 28.6523 53.7578 29.543ZM79.1523 34.875C77.5117 35.8203 75.4727 36.293 73.0352 36.293C70.332 36.293 68.1992 35.5469 66.6367 34.0547C65.082 32.5547 64.3047 30.4922 64.3047 27.8672C64.3047 25.2266 65.1562 23.0742 66.8594 21.4102C68.5625 19.7461 70.8281 18.9141 73.6562 18.9141C75.4375 18.9141 77.0078 19.1602 78.3672 19.6523V23.2031C77.0703 22.4531 75.4844 22.0781 73.6094 22.0781C72.0391 22.0781 70.7578 22.5898 69.7656 23.6133C68.7812 24.6289 68.2891 25.9883 68.2891 27.6914C68.2891 29.418 68.7305 30.7539 69.6133 31.6992C70.5039 32.6445 71.7031 33.1172 73.2109 33.1172C74.1172 33.1172 74.8359 32.9883 75.3672 32.7305V29.4492H72.0039V26.4258H79.1523V34.875ZM87.7773 36.293C85.7773 36.293 84.2031 35.7344 83.0547 34.6172C81.9141 33.4922 81.3438 31.9688 81.3438 30.0469C81.3438 28.0625 81.9375 26.5117 83.125 25.3945C84.3125 24.2695 85.918 23.707 87.9414 23.707C89.9336 23.707 91.4961 24.2695 92.6289 25.3945C93.7617 26.5117 94.3281 27.9922 94.3281 29.8359C94.3281 31.8281 93.7422 33.4023 92.5703 34.5586C91.4062 35.7148 89.8086 36.293 87.7773 36.293ZM87.8711 26.543C86.9961 26.543 86.3164 26.8438 85.832 27.4453C85.3477 28.0469 85.1055 28.8984 85.1055 30C85.1055 32.3047 86.0352 33.457 87.8945 33.457C89.668 33.457 90.5547 32.2734 90.5547 29.9062C90.5547 27.6641 89.6602 26.543 87.8711 26.543ZM107.512 31.0547H99.6836C99.8086 32.7969 100.906 33.668 102.977 33.668C104.297 33.668 105.457 33.3555 106.457 32.7305V35.4023C105.348 35.9961 103.906 36.293 102.133 36.293C100.195 36.293 98.6914 35.7578 97.6211 34.6875C96.5508 33.6094 96.0156 32.1094 96.0156 30.1875C96.0156 28.1953 96.5938 26.6172 97.75 25.4531C98.9062 24.2891 100.328 23.707 102.016 23.707C103.766 23.707 105.117 24.2266 106.07 25.2656C107.031 26.3047 107.512 27.7148 107.512 29.4961V31.0547ZM104.078 28.7812C104.078 27.0625 103.383 26.2031 101.992 26.2031C101.398 26.2031 100.883 26.4492 100.445 26.9414C100.016 27.4336 99.7539 28.0469 99.6602 28.7812H104.078ZM117.543 27.3398C117.098 27.0977 116.578 26.9766 115.984 26.9766C115.18 26.9766 114.551 27.2734 114.098 27.8672C113.645 28.4531 113.418 29.2539 113.418 30.2695V36H109.715V24H113.418V26.2266H113.465C114.051 24.6016 115.105 23.7891 116.629 23.7891C117.02 23.7891 117.324 23.8359 117.543 23.9297V27.3398Z" fill="#482A89"/>
</svg>
